# This file uses centimeters as units for non-parametric coordinates.

mtllib Moneta.mtl
g default
v 0.076916 -0.030706 0.133223
v 0.148591 -0.030706 0.039815
v 0.133223 -0.030706 -0.076917
v 0.039815 -0.030706 -0.148591
v -0.076917 -0.030706 -0.133223
v -0.148591 -0.030706 -0.039815
v -0.133223 -0.030706 0.076917
v -0.039815 -0.030706 0.148591
v 0.076916 0.030706 0.133223
v 0.148591 0.030706 0.039815
v 0.133223 0.030706 -0.076917
v 0.039815 0.030706 -0.148591
v -0.076917 0.030706 -0.133223
v -0.148591 0.030706 -0.039815
v -0.133223 0.030706 0.076917
v -0.039815 0.030706 0.148591
v -0.035034 -0.030706 0.130750
v 0.067681 -0.030706 0.117227
v -0.117227 -0.030706 0.067681
v -0.130750 -0.030706 -0.035034
v -0.067681 -0.030706 -0.117227
v 0.035034 -0.030706 -0.130750
v 0.117227 -0.030706 -0.067681
v 0.130750 -0.030706 0.035034
v 0.067681 0.030706 0.117227
v 0.130750 0.030706 0.035034
v 0.117227 0.030706 -0.067681
v 0.035034 0.030706 -0.130750
v -0.067681 0.030706 -0.117227
v -0.130750 0.030706 -0.035034
v -0.117227 0.030706 0.067681
v -0.035034 0.030706 0.130750
v -0.035034 -0.012701 0.130750
v 0.067681 -0.012701 0.117227
v -0.117227 -0.012701 0.067681
v -0.130750 -0.012701 -0.035034
v -0.067681 -0.012701 -0.117227
v 0.035034 -0.012701 -0.130750
v 0.117227 -0.012701 -0.067681
v 0.130750 -0.012701 0.035034
v 0.067681 0.012701 0.117227
v 0.130750 0.012701 0.035034
v 0.117227 0.012701 -0.067681
v 0.035034 0.012701 -0.130750
v -0.067681 0.012701 -0.117227
v -0.130750 0.012701 -0.035034
v -0.117227 0.012701 0.067681
v -0.035034 0.012701 0.130750
vt 0.287335 0.672262
vt 0.394624 0.672262
vt 0.394624 0.975720
vt 0.287335 0.975720
vt 0.501913 0.672262
vt 0.501913 0.975720
vt 0.731822 0.672262
vt 0.839111 0.672262
vt 0.839111 0.975720
vt 0.731822 0.975720
vt 0.946400 0.672262
vt 0.946400 0.975720
vt 0.169807 0.271799
vt 0.169807 0.177392
vt 0.258773 0.177392
vt 0.258773 0.271799
vt 0.169807 0.082986
vt 0.258773 0.082986
vt 0.360301 0.271799
vt 0.360301 0.177392
vt 0.449268 0.177392
vt 0.449268 0.271799
vt 0.360301 0.082986
vt 0.449268 0.082986
vt 0.735010 0.082986
vt 0.735010 0.177392
vt 0.646043 0.177392
vt 0.646043 0.082986
vt 0.735010 0.271799
vt 0.646043 0.271799
vt 0.849521 0.275624
vt 0.849521 0.370030
vt 0.760555 0.370030
vt 0.760555 0.275624
vt 0.849521 0.464436
vt 0.760555 0.464436
vt 0.398559 0.444381
vt 0.465459 0.416670
vt 0.532358 0.444381
vt 0.560068 0.511280
vt 0.532358 0.578179
vt 0.465459 0.605890
vt 0.398559 0.578179
vt 0.370849 0.511280
vt 0.532358 0.444381
vt 0.560068 0.511280
vt 0.532358 0.578179
vt 0.465459 0.605890
vt 0.398559 0.578179
vt 0.370849 0.511280
vt 0.398559 0.444381
vt 0.465459 0.416670
vt 0.389431 0.435252
vt 0.465459 0.403760
vt 0.465459 0.416670
vt 0.398560 0.444381
vt 0.541487 0.435252
vt 0.532358 0.444381
vt 0.357939 0.511280
vt 0.370849 0.511280
vt 0.572978 0.511280
vt 0.560068 0.511280
vt 0.389431 0.587308
vt 0.398560 0.578179
vt 0.541487 0.587308
vt 0.532358 0.578179
vt 0.465459 0.618800
vt 0.465459 0.605890
vt 0.541487 0.435252
vt 0.572978 0.511280
vt 0.560068 0.511280
vt 0.532358 0.444381
vt 0.541487 0.587308
vt 0.532358 0.578179
vt 0.465459 0.403760
vt 0.465459 0.416670
vt 0.465459 0.618800
vt 0.465459 0.605890
vt 0.389431 0.435252
vt 0.398559 0.444381
vt 0.389431 0.587308
vt 0.398559 0.578179
vt 0.357939 0.511280
vt 0.370849 0.511280
vt 0.281350 0.975720
vt 0.174061 0.975720
vt 0.174061 0.672262
vt 0.281350 0.672262
vt 0.066773 0.975720
vt 0.066773 0.672262
vt 0.509579 0.672262
vt 0.616868 0.672262
vt 0.616868 0.975720
vt 0.509579 0.975720
vt 0.724156 0.672262
vt 0.724156 0.975720
vt 0.354021 0.082986
vt 0.354021 0.177392
vt 0.265054 0.177392
vt 0.265054 0.082986
vt 0.354021 0.271799
vt 0.265054 0.271799
vt 0.455549 0.271799
vt 0.455549 0.177392
vt 0.544515 0.177392
vt 0.544515 0.271799
vt 0.455549 0.082986
vt 0.544515 0.082986
vt 0.639762 0.082986
vt 0.639762 0.177392
vt 0.550796 0.177392
vt 0.550796 0.082986
vt 0.639762 0.271799
vt 0.550796 0.271799
vt 0.741290 0.271799
vt 0.741290 0.177392
vt 0.830257 0.177392
vt 0.830257 0.271799
vt 0.741290 0.082986
vt 0.830257 0.082986
vn 0.793353 0.000000 0.608761
vn 0.793353 0.000000 0.608761
vn 0.793353 0.000000 0.608761
vn 0.793353 0.000000 0.608761
vn 0.991445 0.000000 -0.130526
vn 0.991445 0.000000 -0.130526
vn 0.991445 0.000000 -0.130526
vn 0.991445 0.000000 -0.130526
vn 0.608761 0.000000 -0.793353
vn 0.608761 0.000000 -0.793353
vn 0.608761 0.000000 -0.793353
vn 0.608761 0.000000 -0.793353
vn -0.130526 0.000000 -0.991445
vn -0.130526 0.000000 -0.991445
vn -0.130526 0.000000 -0.991445
vn -0.130526 0.000000 -0.991445
vn -0.793353 0.000000 -0.608761
vn -0.793353 0.000000 -0.608761
vn -0.793353 0.000000 -0.608761
vn -0.793353 0.000000 -0.608761
vn -0.991445 0.000000 0.130526
vn -0.991445 0.000000 0.130526
vn -0.991445 0.000000 0.130526
vn -0.991445 0.000000 0.130526
vn -0.608762 0.000000 0.793353
vn -0.608762 0.000000 0.793353
vn -0.608762 0.000000 0.793353
vn -0.608762 0.000000 0.793353
vn 0.130526 0.000000 0.991445
vn 0.130526 0.000000 0.991445
vn 0.130526 0.000000 0.991445
vn 0.130526 0.000000 0.991445
vn 0.000000 -1.000000 0.000000
vn 0.000000 -1.000000 0.000000
vn 0.000000 -1.000000 0.000000
vn 0.000000 -1.000000 0.000000
vn 0.000000 -1.000000 0.000000
vn 0.000000 -1.000000 0.000000
vn 0.000000 -1.000000 0.000000
vn 0.000000 -1.000000 0.000000
vn -0.000000 1.000000 0.000000
vn -0.000000 1.000000 0.000000
vn -0.000000 1.000000 0.000000
vn -0.000000 1.000000 0.000000
vn -0.000000 1.000000 0.000000
vn -0.000000 1.000000 0.000000
vn -0.000000 1.000000 0.000000
vn -0.000000 1.000000 0.000000
vn 0.000000 -1.000000 0.000000
vn 0.000000 -1.000000 0.000000
vn 0.000000 -1.000000 0.000000
vn 0.000000 -1.000000 0.000000
vn 0.000000 -1.000000 0.000000
vn 0.000000 -1.000000 0.000000
vn 0.000000 -1.000000 0.000000
vn 0.000000 -1.000000 0.000000
vn 0.000000 -1.000000 0.000000
vn 0.000000 -1.000000 0.000000
vn 0.000000 -1.000000 0.000000
vn 0.000000 -1.000000 0.000000
vn 0.000000 -1.000000 0.000000
vn 0.000000 -1.000000 0.000000
vn 0.000000 -1.000000 0.000000
vn 0.000000 -1.000000 0.000000
vn 0.000000 -1.000000 0.000000
vn 0.000000 -1.000000 0.000000
vn 0.000000 -1.000000 0.000000
vn 0.000000 -1.000000 0.000000
vn 0.000000 -1.000000 0.000000
vn 0.000000 -1.000000 0.000000
vn 0.000000 -1.000000 0.000000
vn 0.000000 -1.000000 0.000000
vn 0.000000 -1.000000 0.000000
vn 0.000000 -1.000000 0.000000
vn 0.000000 -1.000000 0.000000
vn 0.000000 -1.000000 0.000000
vn 0.000000 -1.000000 0.000000
vn 0.000000 -1.000000 0.000000
vn 0.000000 -1.000000 0.000000
vn 0.000000 -1.000000 0.000000
vn -0.000000 1.000000 0.000000
vn -0.000000 1.000000 0.000000
vn -0.000000 1.000000 0.000000
vn -0.000000 1.000000 0.000000
vn -0.000000 1.000000 0.000000
vn -0.000000 1.000000 0.000000
vn -0.000000 1.000000 0.000000
vn -0.000000 1.000000 0.000000
vn -0.000000 1.000000 0.000000
vn -0.000000 1.000000 0.000000
vn -0.000000 1.000000 0.000000
vn -0.000000 1.000000 0.000000
vn -0.000000 1.000000 0.000000
vn -0.000000 1.000000 0.000000
vn -0.000000 1.000000 0.000000
vn -0.000000 1.000000 0.000000
vn -0.000000 1.000000 0.000000
vn -0.000000 1.000000 0.000000
vn -0.000000 1.000000 0.000000
vn -0.000000 1.000000 0.000000
vn -0.000000 1.000000 0.000000
vn -0.000000 1.000000 0.000000
vn -0.000000 1.000000 0.000000
vn -0.000000 1.000000 0.000000
vn -0.000000 1.000000 0.000000
vn -0.000000 1.000000 0.000000
vn -0.000000 1.000000 0.000000
vn -0.000000 1.000000 0.000000
vn -0.000000 1.000000 0.000000
vn -0.000000 1.000000 0.000000
vn -0.000000 1.000000 0.000000
vn -0.000000 1.000000 0.000000
vn -0.130526 0.000000 -0.991445
vn -0.130526 0.000000 -0.991445
vn -0.130526 0.000000 -0.991445
vn -0.130526 0.000000 -0.991445
vn 0.608761 0.000000 -0.793353
vn 0.608761 0.000000 -0.793353
vn 0.608761 0.000000 -0.793353
vn 0.608761 0.000000 -0.793353
vn 0.991445 0.000000 -0.130526
vn 0.991445 0.000000 -0.130526
vn 0.991445 0.000000 -0.130526
vn 0.991445 0.000000 -0.130526
vn 0.793353 0.000000 0.608761
vn 0.793353 0.000000 0.608761
vn 0.793353 0.000000 0.608761
vn 0.793353 0.000000 0.608761
vn 0.130526 0.000000 0.991445
vn 0.130526 0.000000 0.991445
vn 0.130526 0.000000 0.991445
vn 0.130526 0.000000 0.991445
vn -0.608762 0.000000 0.793353
vn -0.608762 0.000000 0.793353
vn -0.608762 0.000000 0.793353
vn -0.608762 0.000000 0.793353
vn -0.991445 0.000000 0.130526
vn -0.991445 0.000000 0.130526
vn -0.991445 0.000000 0.130526
vn -0.991445 0.000000 0.130526
vn -0.793353 0.000000 -0.608761
vn -0.793353 0.000000 -0.608761
vn -0.793353 0.000000 -0.608761
vn -0.793353 0.000000 -0.608761
vn -0.793353 0.000000 -0.608761
vn -0.793353 0.000000 -0.608761
vn -0.793353 0.000000 -0.608761
vn -0.793353 0.000000 -0.608761
vn -0.991445 0.000000 0.130526
vn -0.991445 0.000000 0.130526
vn -0.991445 0.000000 0.130526
vn -0.991445 0.000000 0.130526
vn -0.608762 0.000000 0.793353
vn -0.608762 0.000000 0.793353
vn -0.608762 0.000000 0.793353
vn -0.608762 0.000000 0.793353
vn 0.130526 0.000000 0.991445
vn 0.130526 0.000000 0.991445
vn 0.130526 0.000000 0.991445
vn 0.130526 0.000000 0.991445
vn 0.793353 0.000000 0.608761
vn 0.793353 0.000000 0.608761
vn 0.793353 0.000000 0.608761
vn 0.793353 0.000000 0.608761
vn 0.991445 0.000000 -0.130526
vn 0.991445 0.000000 -0.130526
vn 0.991445 0.000000 -0.130526
vn 0.991445 0.000000 -0.130526
vn 0.608761 0.000000 -0.793353
vn 0.608761 0.000000 -0.793353
vn 0.608761 0.000000 -0.793353
vn 0.608761 0.000000 -0.793353
vn -0.130526 0.000000 -0.991445
vn -0.130526 0.000000 -0.991445
vn -0.130526 0.000000 -0.991445
vn -0.130526 0.000000 -0.991445
s off
g pCylinder1
usemtl lambert5SG
f 1/85/1 2/86/2 10/87/3 9/88/4
f 2/86/5 3/89/6 11/90/7 10/87/8
f 3/1/9 4/2/10 12/3/11 11/4/12
f 4/2/13 5/5/14 13/6/15 12/3/16
f 5/91/17 6/92/18 14/93/19 13/94/20
f 6/92/21 7/95/22 15/96/23 14/93/24
f 7/7/25 8/8/26 16/9/27 15/10/28
f 8/8/29 1/11/30 9/12/31 16/9/32
f 34/37/33 33/38/34 35/39/35 36/40/36 37/41/37 38/42/38 39/43/39 40/44/40
f 41/45/41 42/46/42 43/47/43 44/48/44 45/49/45 46/50/46 47/51/47 48/52/48
f 1/53/49 8/54/50 17/55/51 18/56/52
f 8/54/53 7/57/54 19/58/55 17/55/56
f 7/57/57 6/61/58 20/62/59 19/58/60
f 6/61/61 5/65/62 21/66/63 20/62/64
f 5/65/65 4/67/66 22/68/67 21/66/68
f 4/67/69 3/63/70 23/64/71 22/68/72
f 3/63/73 2/59/74 24/60/75 23/64/76
f 2/59/77 1/53/78 18/56/79 24/60/80
f 9/69/81 10/70/82 26/71/83 25/72/84
f 10/70/85 11/73/86 27/74/87 26/71/88
f 11/73/89 12/77/90 28/78/91 27/74/92
f 12/77/93 13/81/94 29/82/95 28/78/96
f 13/81/97 14/83/98 30/84/99 29/82/100
f 14/83/101 15/79/102 31/80/103 30/84/104
f 15/79/105 16/75/106 32/76/107 31/80/108
f 16/75/109 9/69/110 25/72/111 32/76/112
f 18/13/113 17/14/114 33/15/115 34/16/116
f 17/14/117 19/17/118 35/18/119 33/15/120
f 19/97/121 20/98/122 36/99/123 35/100/124
f 20/98/125 21/101/126 37/102/127 36/99/128
f 21/19/129 22/20/130 38/21/131 37/22/132
f 22/20/133 23/23/134 39/24/135 38/21/136
f 23/103/137 24/104/138 40/105/139 39/106/140
f 24/104/141 18/107/142 34/108/143 40/105/144
f 25/109/145 26/110/146 42/111/147 41/112/148
f 26/110/149 27/113/150 43/114/151 42/111/152
f 27/25/153 28/26/154 44/27/155 43/28/156
f 28/26/157 29/29/158 45/30/159 44/27/160
f 29/115/161 30/116/162 46/117/163 45/118/164
f 30/116/165 31/119/166 47/120/167 46/117/168
f 31/31/169 32/32/170 48/33/171 47/34/172
f 32/32/173 25/35/174 41/36/175 48/33/176
