# This file uses centimeters as units for non-parametric coordinates.

mtllib Door.mtl
g default
v 1.038460 -0.000001 -0.128076
v 1.038461 -0.000001 0.128075
v 0.000000 0.000000 0.128075
v 0.000000 0.000000 -0.128076
v 0.000000 2.765238 -0.128076
v 1.038460 2.717288 -0.128076
v 2.076921 -0.000004 -0.128075
v 2.076921 -0.000004 0.128075
v 1.038461 2.717288 0.128075
v 0.000000 2.765238 0.128075
v -1.038461 -0.000001 0.128075
v -1.038460 -0.000001 -0.128076
v -1.038460 2.717288 -0.128076
v 0.000000 3.155301 -0.128076
v 1.038460 3.100589 -0.128076
v 2.076921 2.537681 -0.128076
v 2.076921 2.537681 0.128075
v 1.038461 3.100589 0.128075
v 0.000000 3.155301 0.128075
v -1.038461 2.717288 0.128075
v -2.076921 -0.000004 0.128075
v -2.076920 -0.000004 -0.128076
v -2.076921 2.537681 -0.128076
v -1.038460 3.100589 -0.128076
v 0.000000 5.015962 -0.128075
v 1.038460 4.928987 -0.128075
v 0.000000 3.602261 -0.128076
v 0.000513 3.601749 -0.128076
v 0.707107 4.309368 -0.128076
v 0.000000 5.015450 -0.128075
v 2.076921 2.895646 -0.128076
v 2.076921 2.895646 0.128075
v 1.594321 2.835352 0.128075
v 1.535347 2.745058 0.128075
v 1.474522 2.835352 0.128075
v 1.038461 4.928987 0.128075
v 0.000000 5.015962 0.128075
v 0.000000 5.015450 0.128075
v 0.707107 4.309368 0.128075
v 0.000513 3.601749 0.128075
v 0.000000 3.602261 0.128075
v -1.038461 3.100589 0.128075
v -2.076921 2.537681 0.128075
v -2.076920 2.895646 -0.128076
v -1.038460 4.928987 -0.128075
v -0.000559 5.015915 -0.128075
v -0.707106 4.308343 -0.128076
v -0.000472 5.015922 -0.128075
v 0.000000 5.309320 -0.128076
v 1.038460 5.217257 -0.128076
v 2.076921 4.603192 -0.128075
v 2.076921 4.603192 0.128075
v 1.535347 2.935201 0.128075
v 1.594321 2.835352 0.146152
v 1.535347 2.745058 0.146152
v 1.474522 2.835352 0.146152
v 1.038461 5.217257 0.128075
v 0.000000 5.309320 0.128075
v -0.000472 5.015922 0.128075
v -0.000559 5.015915 0.128075
v -1.038461 4.928987 0.128075
v -0.707106 4.308343 0.128075
v -2.076921 2.895646 0.128075
v -2.076920 4.603192 -0.128076
v -1.038460 5.217257 -0.128076
v -0.000512 5.015962 -0.128075
v 2.076921 4.872410 -0.128075
v 2.076921 4.872410 0.128075
v 1.535347 2.935201 0.146152
v 1.609545 2.834137 0.146152
v 1.535582 2.720896 0.146152
v 1.459299 2.834137 0.146152
v -1.038461 5.217257 0.128075
v -0.000512 5.015962 0.128075
v -2.076921 4.603192 0.128075
v -2.076920 4.872410 -0.128076
v 1.535582 2.959363 0.146152
v 1.609545 2.834137 0.168478
v 1.535582 2.720896 0.168478
v 1.459299 2.834137 0.168478
v -2.076921 4.872410 0.128075
v 1.535582 2.959363 0.168478
vt 0.440217 0.836900
vt 0.408521 0.836900
vt 0.408521 0.813128
vt 0.440217 0.813128
vt 0.440217 0.813128
vt 0.440217 0.836900
vt 0.440217 0.860673
vt 0.408521 0.860673
vt 0.408521 0.836900
vt 0.408521 0.813128
vt 0.408521 0.789356
vt 0.440217 0.789356
vt 0.440217 0.789356
vt 0.440217 0.813128
vt 0.440217 0.836900
vt 0.440217 0.860672
vt 0.408521 0.860672
vt 0.408521 0.836900
vt 0.408521 0.813128
vt 0.408521 0.789356
vt 0.408521 0.765583
vt 0.440217 0.765583
vt 0.440217 0.765583
vt 0.440217 0.789356
vt 0.440217 0.813128
vt 0.440217 0.836900
vt 0.440217 0.813128
vt 0.440217 0.813140
vt 0.440217 0.829315
vt 0.440217 0.813128
vt 0.440217 0.860672
vt 0.408521 0.860672
vt 0.408521 0.850830
vt 0.408521 0.846184
vt 0.408521 0.845953
vt 0.408521 0.836900
vt 0.408521 0.813128
vt 0.408521 0.813128
vt 0.408521 0.829315
vt 0.408521 0.813140
vt 0.408521 0.813128
vt 0.408521 0.789356
vt 0.408521 0.765583
vt 0.440217 0.765583
vt 0.440217 0.789356
vt 0.440217 0.813115
vt 0.440217 0.796941
vt 0.440217 0.813117
vt 0.440217 0.813128
vt 0.440217 0.836900
vt 0.440217 0.860673
vt 0.408521 0.860673
vt 0.408521 0.850710
vt 0.408521 0.850830
vt 0.408521 0.846184
vt 0.408521 0.845953
vt 0.408521 0.836900
vt 0.408521 0.813128
vt 0.408521 0.813117
vt 0.408521 0.813115
vt 0.408521 0.789356
vt 0.408521 0.796941
vt 0.408521 0.765583
vt 0.440217 0.765583
vt 0.440217 0.789356
vt 0.440217 0.813116
vt 0.000000 0.000000
vt 0.752941 0.000000
vt 0.752941 1.000000
vt 0.000000 1.000000
vt 0.440217 0.860673
vt 0.408521 0.860673
vt 0.408521 0.850710
vt 0.408521 0.850830
vt 0.408521 0.846184
vt 0.408521 0.845953
vt 0.408521 0.789356
vt 0.408521 0.813116
vt 0.408521 0.765583
vt 0.440217 0.765583
vt 0.000000 0.000000
vt 0.752941 0.000000
vt 0.752941 1.000000
vt 0.000000 1.000000
vt 0.000000 0.000000
vt 0.790271 0.000000
vt 0.790271 1.000000
vt 0.000000 1.000000
vt 0.408521 0.850710
vt 0.408521 0.850830
vt 0.408521 0.846184
vt 0.408521 0.845953
vt 0.408521 0.765583
vt 0.000000 0.000000
vt 0.790271 0.000000
vt 0.790271 1.000000
vt 0.000001 1.000000
vt 0.408521 0.850710
vt 0.000000 0.000000
vt 1.000000 0.000000
vt 1.000000 0.256151
vt 0.000000 0.256150
vt 0.000000 0.000000
vt 1.000000 0.000000
vt 1.000000 0.256336
vt 0.000000 0.256336
vt 0.000000 0.000000
vt 1.000000 0.000000
vt 1.000000 0.256336
vt 0.000000 0.256336
vt 0.000000 0.000000
vt 1.000000 0.000000
vt 1.000000 0.256168
vt 0.000000 0.256168
vn -0.000002 -1.000000 0.000000
vn -0.000002 -1.000000 0.000000
vn 0.000000 -1.000000 0.000000
vn 0.000000 -1.000000 0.000000
vn 0.000000 0.000000 -1.000000
vn 0.000000 0.000000 -1.000000
vn 0.000000 0.000000 -1.000000
vn 0.000000 0.000000 -1.000000
vn -0.000003 -1.000000 0.000000
vn -0.000003 -1.000000 0.000000
vn 0.000000 0.000000 1.000000
vn 0.000000 0.000000 1.000000
vn 0.000000 0.000000 1.000000
vn 0.000000 0.000000 1.000000
vn 0.000002 -1.000000 0.000000
vn 0.000002 -1.000000 0.000000
vn -0.000000 0.000000 -1.000000
vn -0.000000 0.000000 -1.000000
vn -0.000000 0.000000 -1.000000
vn -0.000000 0.000000 -1.000000
vn -0.000000 0.000000 -1.000000
vn 0.000000 0.000000 -1.000000
vn 0.000000 -0.000000 -1.000000
vn 0.000000 -0.000000 -1.000000
vn 0.000000 -0.000000 -1.000000
vn 0.000000 -0.000000 -1.000000
vn 1.000000 0.000000 -0.000003
vn 1.000000 0.000000 -0.000003
vn 1.000000 0.000000 -0.000003
vn 1.000000 0.000000 -0.000003
vn -0.000000 0.000000 1.000000
vn 0.000000 0.000000 1.000000
vn 0.000000 0.000000 1.000000
vn 0.000000 0.000000 1.000000
vn 0.000000 0.000000 1.000000
vn 0.000000 0.000000 1.000000
vn -0.000000 0.000000 1.000000
vn -0.000000 0.000000 1.000000
vn -0.000000 0.000000 1.000000
vn -0.000000 0.000000 1.000000
vn 0.000003 -1.000000 0.000000
vn 0.000003 -1.000000 0.000000
vn 0.000000 -0.000000 -1.000000
vn 0.000000 -0.000000 -1.000000
vn 0.000000 -0.000000 -1.000000
vn 0.000000 -0.000000 -1.000000
vn -0.000000 0.000000 -1.000000
vn 0.000000 -0.000000 -1.000000
vn -0.000000 -0.000000 -1.000000
vn -0.000000 0.000000 -1.000000
vn 0.000000 0.000000 -1.000000
vn 0.000000 0.000000 -1.000000
vn 0.000000 0.000000 -1.000000
vn 0.000000 0.000000 -1.000000
vn 0.000000 0.000000 -1.000000
vn 1.000000 -0.000000 -0.000002
vn 1.000000 -0.000000 -0.000002
vn -0.000000 0.000000 1.000000
vn 0.000000 0.000000 1.000000
vn 0.000000 0.000000 1.000000
vn 0.000000 0.000000 1.000000
vn 0.000000 0.000000 1.000000
vn -0.000000 0.000000 1.000000
vn 0.000000 0.000000 1.000000
vn 0.000000 0.000000 1.000000
vn 0.000000 0.000000 1.000000
vn 0.000000 0.000000 1.000000
vn 0.000000 0.000000 1.000000
vn 0.000000 0.000000 1.000000
vn 0.000000 0.000000 1.000000
vn 0.000000 0.000000 1.000000
vn 0.000000 0.000000 1.000000
vn -1.000000 -0.000000 -0.000003
vn -1.000000 -0.000000 -0.000003
vn -1.000000 -0.000000 -0.000003
vn -1.000000 -0.000000 -0.000003
vn 0.000000 0.000000 -1.000000
vn 0.000000 0.000000 -1.000000
vn -0.000000 -0.000000 -1.000000
vn 0.000000 -0.000000 -1.000000
vn -0.000000 0.000000 -1.000000
vn 0.000000 -0.000000 -1.000000
vn -0.000000 -0.000000 -1.000000
vn -0.000000 -0.000000 -1.000000
vn 0.000000 0.000000 -1.000000
vn 0.000000 0.000000 -1.000000
vn 1.000000 -0.000000 -0.000002
vn 1.000000 -0.000000 -0.000002
vn -0.000000 0.000000 1.000000
vn -0.000000 0.000000 1.000000
vn 0.837242 -0.546833 0.000000
vn 0.837242 -0.546833 0.000000
vn 0.837242 -0.546833 0.000000
vn 0.837242 -0.546833 0.000000
vn -0.829373 -0.558695 0.000000
vn -0.829373 -0.558695 0.000000
vn -0.829373 -0.558695 0.000000
vn -0.829373 -0.558695 0.000000
vn 0.000000 0.000000 1.000000
vn 0.000000 0.000000 1.000000
vn 0.000000 0.000000 1.000000
vn 0.000000 0.000000 1.000000
vn -0.000000 0.000000 1.000000
vn -0.000000 0.000000 1.000000
vn 0.000000 0.000000 1.000000
vn 0.000000 0.000000 1.000000
vn 0.000000 0.000000 1.000000
vn 0.000000 0.000000 1.000000
vn -1.000000 0.000000 -0.000004
vn -1.000000 0.000000 -0.000004
vn 0.000000 0.000000 -1.000000
vn 0.000000 0.000000 -1.000000
vn 0.000000 -0.000000 -1.000000
vn 0.000000 -0.000000 -1.000000
vn 0.000000 -0.000000 -1.000000
vn 0.088307 0.996093 -0.000000
vn 0.088307 0.996093 -0.000000
vn 0.088307 0.996093 -0.000000
vn 0.088307 0.996093 -0.000000
vn -0.000000 -0.000000 -1.000000
vn -0.000000 -0.000000 -1.000000
vn 1.000000 0.000000 -0.000002
vn 1.000000 0.000000 -0.000002
vn 0.861032 0.508551 0.000000
vn 0.861032 0.508551 0.000000
vn 0.861032 0.508551 0.000000
vn 0.861032 0.508551 0.000000
vn 0.000001 0.000000 -1.000000
vn 0.000001 0.000000 -1.000000
vn 0.000001 0.000000 -1.000000
vn 0.000001 0.000000 -1.000000
vn -0.854020 0.520240 0.000000
vn -0.854020 0.520240 0.000000
vn -0.854020 0.520240 0.000000
vn -0.854020 0.520240 0.000000
vn 0.000000 0.000000 -1.000000
vn 0.000000 0.000000 -1.000000
vn 0.000000 0.000000 -1.000000
vn 0.000000 0.000000 -1.000000
vn 0.000000 0.000000 1.000000
vn 0.000000 0.000000 1.000000
vn -0.000000 0.000000 1.000000
vn -0.000000 0.000000 1.000000
vn -0.000000 0.000000 1.000000
vn 0.000000 0.000000 1.000000
vn 0.000000 0.000000 1.000000
vn -1.000000 0.000000 -0.000004
vn -1.000000 0.000000 -0.000004
vn 0.000000 -0.000000 -1.000000
vn 0.000000 -0.000000 -1.000000
vn -0.088307 0.996093 -0.000001
vn -0.088307 0.996093 -0.000001
vn -0.088307 0.996093 -0.000001
vn -0.088307 0.996093 -0.000001
vn 0.315153 0.949041 0.000000
vn 0.315153 0.949041 0.000000
vn 0.315153 0.949041 0.000000
vn 0.315153 0.949041 0.000000
vn 0.000000 0.000000 -1.000000
vn 0.000000 0.000000 -1.000000
vn 0.000000 0.000000 -1.000000
vn 0.000000 0.000000 -1.000000
vn 0.837242 -0.546833 0.000000
vn 0.837242 -0.546833 0.000000
vn 0.837242 -0.546833 0.000000
vn 0.837242 -0.546833 0.000000
vn 0.000000 0.000000 -1.000000
vn 0.000000 0.000000 -1.000000
vn 0.000000 0.000000 -1.000000
vn 0.000000 0.000000 -1.000000
vn -0.829374 -0.558694 0.000000
vn -0.829374 -0.558694 0.000000
vn -0.829374 -0.558694 0.000000
vn -0.829374 -0.558694 0.000000
vn 0.000000 0.000000 1.000000
vn 0.000000 0.000000 1.000000
vn -1.000000 0.000000 -0.000004
vn -1.000000 0.000000 -0.000004
vn -0.315154 0.949041 -0.000000
vn -0.315154 0.949041 -0.000000
vn -0.315154 0.949041 -0.000000
vn -0.315154 0.949041 -0.000000
vn 0.861031 0.508552 0.000000
vn 0.861031 0.508552 0.000000
vn 0.861031 0.508552 0.000000
vn 0.861031 0.508552 0.000000
vn 0.000000 0.000000 1.000000
vn 0.000000 0.000000 1.000000
vn 0.000000 0.000000 1.000000
vn 0.000000 0.000000 1.000000
vn -0.854020 0.520240 0.000000
vn -0.854020 0.520240 0.000000
vn -0.854020 0.520240 0.000000
vn -0.854020 0.520240 0.000000
vn -0.707619 0.706594 0.000000
vn -0.707619 0.706594 0.000000
vn -0.707619 0.706594 0.000000
vn -0.707619 0.706594 0.000000
vn -0.706594 -0.707619 0.000000
vn -0.706594 -0.707619 0.000000
vn -0.706594 -0.707619 0.000000
vn -0.706594 -0.707619 0.000000
vn 0.706594 0.707619 0.000000
vn 0.706594 0.707619 0.000000
vn 0.706594 0.707619 0.000000
vn 0.706594 0.707619 0.000000
vn 0.707619 -0.706594 0.000000
vn 0.707619 -0.706594 0.000000
vn 0.707619 -0.706594 0.000000
vn 0.707619 -0.706594 0.000000
s 1
g porta_quadrupla1
usemtl initialShadingGroup
f 1/1/1 2/2/2 3/3/3 4/4/4
s 2
f 5/5/5 6/6/6 1/1/7 4/4/8
s 1
f 7/7/9 8/8/10 2/2/2 1/1/1
s 3
f 9/9/11 10/10/12 3/3/13 2/2/14
s 1
f 4/4/4 3/3/3 11/11/15 12/12/16
s 2
f 13/13/17 5/5/18 4/4/19 12/12/20
f 14/14/21 15/15/22 6/6/6 5/5/5
s 5
f 6/6/23 16/16/24 7/7/25 1/1/26
s 6
f 16/16/27 17/17/28 8/8/29 7/7/30
s 7
f 17/17/31 9/9/32 2/2/33 8/8/34
s 3
f 18/18/35 19/19/36 10/10/12 9/9/11
f 10/10/37 20/20/38 11/11/39 3/3/40
s 1
f 12/12/16 11/11/15 21/21/41 22/22/42
s 9
f 23/23/43 13/13/44 12/12/45 22/22/46
s 2
f 24/24/47 14/14/21 5/5/18 13/13/17
f 25/25/48 26/26/49 15/15/22 14/14/21 27/27/50 28/28/51 29/29/52 30/30/53
s 5
f 15/15/54 31/31/55 16/16/24 6/6/23
s 6
f 31/31/56 32/32/57 17/17/28 16/16/27
s 7
f 33/33/58 34/34/59 9/9/32 17/17/31
f 9/9/32 34/34/59 35/35/60 18/18/61
s 3
f 36/36/62 37/37/63 38/38/64 39/39/65 40/40/66 41/41/67 19/19/36 18/18/35
f 19/19/36 42/42/68 20/20/38 10/10/37
s 10
f 20/20/69 43/43/70 21/21/71 11/11/72
s 11
f 43/43/73 23/23/74 22/22/75 21/21/76
s 9
f 44/44/77 24/24/78 13/13/44 23/23/43
s 2
f 45/45/79 46/46/80 47/47/81 27/27/50 14/14/21 24/24/47
f 48/48/82 25/25/48 30/30/53
f 49/49/83 50/50/84 26/26/49 25/25/48
s 5
f 26/26/85 51/51/86 31/31/55 15/15/54
s 6
f 51/51/87 52/52/88 32/32/57 31/31/56
s 7
f 32/32/89 53/53/90 33/33/58 17/17/31
s off
f 34/34/91 33/33/92 54/54/93 55/55/94
f 35/35/95 34/34/96 55/55/97 56/56/98
s 7
f 32/32/89 18/18/61 35/35/60 53/53/90
f 52/52/99 36/36/100 18/18/61 32/32/89
s 3
f 57/57/101 58/58/102 37/37/63 36/36/62
f 37/37/63 59/59/103 38/38/64
f 60/60/104 61/61/105 42/42/68 19/19/36 41/41/67 62/62/106
s 10
f 42/42/107 63/63/108 43/43/70 20/20/69
s 11
f 63/63/109 44/44/110 23/23/74 43/43/73
s 9
f 64/64/111 45/45/112 24/24/78 44/44/77
s 2
f 65/65/113 49/49/114 25/25/48 48/48/82 66/66/115 46/46/80 45/45/79
s off
f 50/67/116 49/68/117 58/69/118 57/70/119
s 5
f 50/50/120 67/71/121 51/51/86 26/26/85
s 6
f 67/71/122 68/72/123 52/52/88 51/51/87
s off
f 33/33/124 53/53/125 69/73/126 54/54/127
f 55/55/128 54/54/129 70/74/130 71/75/131
f 53/53/132 35/35/133 56/56/134 69/73/135
f 56/56/136 55/55/137 71/75/138 72/76/139
s 7
f 68/72/140 57/57/141 36/36/100 52/52/99
s 3
f 58/58/142 73/77/143 61/61/105 60/60/104 74/78/144 59/59/103 37/37/63
s 10
f 61/61/145 75/79/146 63/63/108 42/42/107
s 11
f 75/79/147 64/64/148 44/44/110 63/63/109
s 9
f 76/80/149 65/65/150 45/45/112 64/64/111
s off
f 73/81/151 58/82/152 49/83/153 65/84/154
f 57/85/155 68/86/156 67/87/157 50/88/158
f 54/54/159 69/73/160 77/89/161 70/74/162
f 71/75/163 70/74/164 78/90/165 79/91/166
f 69/73/167 56/56/168 72/76/169 77/89/170
f 72/76/171 71/75/172 79/91/173 80/92/174
s 10
f 73/77/175 81/93/176 75/79/146 61/61/145
s 11
f 81/93/177 76/80/178 64/64/148 75/79/147
s off
f 81/94/179 73/95/180 65/96/181 76/97/182
f 70/74/183 77/89/184 82/98/185 78/90/186
f 82/98/187 80/92/188 79/91/189 78/90/190
f 77/89/191 72/76/192 80/92/193 82/98/194
f 29/99/195 28/100/196 40/101/197 39/102/198
f 30/103/199 29/104/200 39/105/201 38/106/202
f 27/107/203 47/108/204 62/109/205 41/110/206
f 47/111/207 46/112/208 60/113/209 62/114/210
