# This file uses centimeters as units for non-parametric coordinates.

mtllib Key.mtl
g default
v 0.163881 0.182245 0.134791
v 0.015499 0.403370 0.134791
v 0.056874 0.469114 0.134791
v -0.018314 0.522561 0.134791
v -0.084204 0.465225 0.134791
v -0.040394 0.334245 0.134791
v -0.003098 0.378010 0.134791
v 0.079394 0.240820 0.134791
v 0.060594 0.224308 0.134791
v 0.086010 0.188354 0.134791
v 0.100877 0.215708 0.134791
v 0.126236 0.177669 0.134791
v 0.093066 0.140621 0.134791
v 0.114650 0.108747 0.134791
v 0.163881 0.182245 0.148117
v 0.015499 0.403370 0.148117
v 0.056874 0.469114 0.148117
v -0.018314 0.522561 0.148117
v -0.084204 0.465225 0.148117
v -0.040394 0.334245 0.148117
v -0.003098 0.378010 0.148117
v 0.079394 0.240820 0.148117
v 0.060594 0.224308 0.148117
v 0.086010 0.188354 0.148117
v 0.100877 0.215708 0.148117
v 0.126236 0.177669 0.148117
v 0.093066 0.140621 0.148117
v 0.114650 0.108747 0.148117
v 0.110564 0.261700 0.134791
v 0.110564 0.261700 0.148117
v 0.128235 0.235366 0.134791
v 0.128235 0.235366 0.148117
v 0.151707 0.200387 0.134791
v 0.151707 0.200387 0.148117
v -0.049261 0.360754 0.148117
v 0.037608 0.482809 0.148117
v -0.000046 0.509575 0.148117
v -0.072092 0.429014 0.148117
v -0.029968 0.387861 0.148117
v 0.020327 0.458533 0.148117
v -0.018455 0.488993 0.148117
v -0.057511 0.445321 0.148117
v 0.037608 0.482809 0.134791
v -0.000046 0.509575 0.134791
v -0.072092 0.429014 0.134791
v -0.049261 0.360754 0.134791
v 0.020328 0.458533 0.134791
v -0.018455 0.488993 0.134791
v -0.029968 0.387861 0.134791
v -0.057511 0.445321 0.134791
vt 0.079216 0.152341
vt 0.716357 0.152341
vt 0.786308 0.000000
vt 1.000000 0.063744
vt 0.970715 0.259746
vt 0.661813 0.343058
vt 0.689865 0.222963
vt 0.303418 0.235861
vt 0.296244 0.284159
vt 0.204543 0.288411
vt 0.227577 0.227318
vt 0.117927 0.226351
vt 0.087197 0.331239
vt 0.000000 0.334968
vt 0.079216 0.152341
vt 0.716357 0.152341
vt 0.786308 0.000000
vt 1.000000 0.063744
vt 0.970715 0.259746
vt 0.661813 0.343058
vt 0.689865 0.222963
vt 0.303418 0.235861
vt 0.296244 0.284159
vt 0.204543 0.288411
vt 0.227577 0.227318
vt 0.117927 0.226351
vt 0.087197 0.331239
vt 0.000000 0.334968
vt 0.079216 0.152341
vt 0.716357 0.152341
vt 0.786308 0.000000
vt 1.000000 0.063744
vt 0.970715 0.259746
vt 0.661813 0.343058
vt 0.689865 0.222963
vt 0.303418 0.235861
vt 0.296244 0.284159
vt 0.204543 0.288411
vt 0.227577 0.227318
vt 0.117927 0.226351
vt 0.087197 0.331239
vt 0.000000 0.334968
vt 0.308156 0.152341
vt 0.308156 0.152341
vt 0.308156 0.152341
vt 0.232279 0.152341
vt 0.232279 0.152341
vt 0.232279 0.152341
vt 0.131492 0.152341
vt 0.131492 0.152341
vt 0.131492 0.152341
vt 0.726883 0.325509
vt 0.843765 0.017140
vt 0.950592 0.049006
vt 0.885498 0.282729
vt 0.752498 0.257929
vt 0.821555 0.075735
vt 0.934116 0.108163
vt 0.898824 0.234882
vt 0.838365 0.015529
vt 0.838365 0.015529
vt 0.945566 0.047507
vt 0.945566 0.047507
vt 0.885129 0.282829
vt 0.885129 0.282829
vt 0.721780 0.326885
vt 0.721780 0.326885
vt 0.814149 0.080201
vt 0.929980 0.108194
vt 0.748011 0.256830
vt 0.897222 0.235742
vt 0.000000 0.000000
vt 1.000000 0.000000
vt 1.000000 0.209143
vt 0.000000 0.209143
vt 0.000000 0.000000
vt 1.000000 0.000000
vt 1.000000 0.227464
vt 0.000000 0.227464
vt 0.000001 0.000000
vt 1.000000 0.000000
vt 0.999999 0.270241
vt 0.000000 0.270241
vt 0.000001 0.000000
vt 1.000000 0.000000
vt 1.000000 0.153637
vt 0.000000 0.153637
vn 0.000000 -0.000000 1.000000
vn 0.000000 -0.000000 1.000000
vn 0.000000 0.000000 1.000000
vn 0.000000 0.000000 1.000000
vn 0.000000 0.000000 -1.000000
vn 0.000000 0.000000 -1.000000
vn 0.000000 0.000000 -1.000000
vn 0.000000 0.000000 -1.000000
vn 0.830373 0.557207 0.000000
vn 0.830373 0.557207 0.000000
vn 0.830373 0.557207 0.000000
vn 0.830373 0.557207 0.000000
vn 0.846339 -0.532644 0.000000
vn 0.846339 -0.532644 0.000000
vn 0.846339 -0.532644 0.000000
vn 0.846339 -0.532644 0.000000
vn 0.579379 0.815059 -0.000002
vn 0.579379 0.815059 -0.000002
vn 0.579378 0.815059 0.000000
vn 0.579378 0.815059 0.000000
vn -0.656438 0.754380 0.000000
vn -0.656438 0.754380 0.000000
vn -0.656438 0.754380 0.000000
vn -0.656438 0.754380 0.000000
vn -0.948356 -0.317207 -0.000001
vn -0.948357 -0.317207 -0.000001
vn -0.948357 -0.317207 0.000001
vn -0.948357 -0.317207 0.000001
vn 0.761120 -0.648611 0.000000
vn 0.761120 -0.648611 0.000000
vn 0.761120 -0.648611 0.000000
vn 0.761120 -0.648611 0.000000
vn -0.857002 -0.515314 0.000000
vn -0.857002 -0.515314 0.000000
vn -0.857002 -0.515314 0.000000
vn -0.857002 -0.515314 0.000000
vn -0.659907 0.751348 0.000000
vn -0.659907 0.751348 0.000000
vn -0.659907 0.751348 0.000000
vn -0.659907 0.751348 0.000000
vn -0.816579 -0.577233 0.000000
vn -0.816579 -0.577233 0.000000
vn -0.816579 -0.577233 0.000000
vn -0.816579 -0.577233 0.000000
vn 0.878626 -0.477511 0.000000
vn 0.878626 -0.477511 0.000000
vn 0.878626 -0.477511 0.000000
vn 0.878626 -0.477511 0.000000
vn -0.832050 -0.554700 0.000000
vn -0.832050 -0.554700 0.000000
vn -0.832050 -0.554700 0.000000
vn -0.832050 -0.554700 0.000000
vn -0.745016 0.667046 0.000000
vn -0.745016 0.667046 0.000000
vn -0.745016 0.667046 0.000000
vn -0.745016 0.667046 0.000000
vn -0.828021 -0.560697 0.000000
vn -0.828021 -0.560697 0.000000
vn -0.828021 -0.560697 0.000000
vn -0.828021 -0.560697 0.000000
vn 0.830833 -0.556522 0.000000
vn 0.830833 -0.556522 0.000000
vn 0.830833 -0.556522 0.000000
vn 0.830833 -0.556522 0.000000
vn 0.830373 0.557207 0.000000
vn 0.830373 0.557207 0.000000
vn 0.830373 0.557207 0.000000
vn 0.830373 0.557207 0.000000
vn 0.830373 0.557207 0.000000
vn 0.830373 0.557207 0.000000
vn 0.000000 0.000000 1.000000
vn 0.000000 0.000000 1.000000
vn 0.000000 0.000000 1.000000
vn 0.000000 0.000000 1.000000
vn 0.000000 0.000000 1.000000
vn 0.000000 0.000000 -1.000000
vn 0.000000 0.000000 -1.000000
vn 0.000000 0.000000 -1.000000
vn 0.000000 0.000000 -1.000000
vn 0.000000 0.000000 -1.000000
vn 0.000000 0.000000 -1.000000
vn 0.036982 -0.217880 -0.975275
vn 0.000000 0.000000 -1.000000
vn 0.000000 0.000000 -1.000000
vn 0.000000 0.000000 -1.000000
vn -0.000000 0.000000 1.000000
vn -0.000000 0.000000 1.000000
vn 0.000000 -0.000000 1.000000
vn 0.000000 -0.000000 1.000000
vn 0.000000 0.000000 -1.000000
vn 0.000000 0.000000 -1.000000
vn -0.035542 0.209398 0.977184
vn 0.000000 -0.000000 1.000000
vn 0.000000 -0.000000 1.000000
vn -0.000000 0.000000 1.000000
vn 0.338772 -0.038564 0.940078
vn 0.036982 -0.217879 0.975275
vn 0.000000 0.000000 1.000000
vn -0.311933 0.035508 0.949440
vn 0.000000 0.000000 1.000000
vn 0.000000 0.000000 1.000000
vn 0.000000 0.000000 1.000000
vn -0.000000 0.000000 1.000000
vn 0.579378 0.815059 0.000000
vn 0.579378 0.815059 -0.000002
vn 0.579378 0.815059 -0.000002
vn 0.579378 0.815059 0.000000
vn -0.948356 -0.317207 -0.000001
vn -0.948357 -0.317207 -0.000001
vn -0.948357 -0.317207 -0.000001
vn -0.948356 -0.317207 -0.000001
vn -0.311934 0.035510 -0.949440
vn 0.000000 0.000000 -1.000000
vn 0.000000 0.000000 -1.000000
vn -0.035542 0.209398 -0.977184
vn 0.338772 -0.038564 -0.940078
vn 0.000000 0.000000 -1.000000
vn 0.000000 0.000000 -1.000000
vn 0.000000 0.000000 -1.000000
vn 0.000000 0.000000 -1.000000
s 1
g polySurface1
usemtl initialShadingGroup
f 25/39/1 32/48/2 30/45/3 22/36/4
f 33/50/5 12/26/6 11/25/7 31/47/8
s 3
f 1/1/9 33/49/10 34/51/11 15/29/12
s off
f 2/2/13 3/3/14 17/31/15 16/30/16
s 4
f 37/54/17 44/62/18 4/4/19 18/32/20
s off
f 4/4/21 5/5/22 19/33/23 18/32/24
s 5
f 35/52/25 46/66/26 6/6/27 20/34/28
s off
f 6/6/29 7/7/30 21/35/31 20/34/32
f 7/7/33 8/8/34 22/36/35 21/35/36
f 8/8/37 9/9/38 23/37/39 22/36/40
f 9/9/41 10/10/42 24/38/43 23/37/44
f 10/10/45 11/11/46 25/39/47 24/38/48
f 11/11/49 12/12/50 26/40/51 25/39/52
f 12/12/53 13/13/54 27/41/55 26/40/56
f 13/13/57 14/14/58 28/42/59 27/41/60
f 14/14/61 1/1/62 15/29/63 28/42/64
s 3
f 29/43/65 2/2/66 16/30/67 30/45/68
f 31/46/69 29/43/65 30/45/68 32/48/70
f 33/49/10 31/46/69 32/48/70 34/51/11
s 1
f 26/40/71 34/51/72 32/48/2 25/39/1
f 15/29/73 34/51/72 26/40/71 27/41/74 28/42/75
f 1/15/76 14/28/77 13/27/78 12/26/6 33/50/5
f 31/47/8 11/25/7 8/22/79 29/44/80
f 44/63/81 48/69/82 4/18/83
f 8/22/79 11/25/7 10/24/84 9/23/85
f 25/39/1 22/36/4 23/37/86 24/38/87
f 22/36/4 30/45/3 16/30/88 21/35/89
f 29/44/80 8/22/79 7/21/90 2/16/91
f 21/35/89 39/56/92 35/52/93 20/34/94
f 19/33/95 42/59/96 41/58/97 18/32/98
f 21/35/89 16/30/88 40/57/99 39/56/92
f 40/57/99 16/30/88 17/31/100 36/53/101
f 41/58/97 40/57/99 36/53/101 37/54/102
f 35/52/93 39/56/92 42/59/96 38/55/103
f 38/55/103 42/59/96 19/33/95
f 18/32/98 41/58/97 37/54/102
s 4
f 3/3/104 43/60/105 36/53/106 17/31/107
f 36/53/106 43/60/105 44/62/18 37/54/17
s 5
f 5/5/108 45/64/109 38/55/110 19/33/111
f 38/55/110 45/64/109 46/66/26 35/52/25
s 1
f 2/16/91 47/68/112 43/61/113 3/17/114
f 43/61/113 47/68/112 48/69/82 44/63/81
f 2/16/91 7/21/90 49/70/115 47/68/112
f 4/18/83 48/69/82 50/71/116 5/19/117
f 49/70/115 7/21/90 6/20/118 46/67/119
f 50/71/116 49/70/115 46/67/119 45/65/120
f 5/19/117 50/71/116 45/65/120
f 49/72/115 50/73/116 42/74/96 39/75/92
f 50/76/116 48/77/82 41/78/97 42/79/96
f 48/80/82 47/81/112 40/82/99 41/83/97
f 47/84/112 49/85/115 39/86/92 40/87/99
