# This file uses centimeters as units for non-parametric coordinates.

mtllib Tiles_0X.mtl
g default
v -0.500000 -0.432356 -0.350000
v 0.500000 -0.432356 -0.350000
v -0.500000 0.432356 -0.350000
v 0.500000 0.432356 -0.350000
v -0.500000 0.432356 -0.500000
v 0.500000 0.432356 -0.500000
v -0.500000 -0.432356 -0.500000
v 0.500000 -0.432356 -0.500000
v -0.500000 -0.432356 0.500000
v 0.500000 -0.432356 0.500000
v -0.500000 -0.432356 -0.500000
v 0.500000 -0.432356 -0.500000
v 0.347650 -0.432356 0.500000
v 0.500000 -0.432356 0.500000
v 0.347650 0.432356 0.500000
v 0.500000 0.432356 0.500000
v 0.347650 0.432356 0.350000
v 0.500000 0.432356 0.350000
v 0.347650 -0.432356 0.350000
v 0.500000 -0.432356 0.350000
v -0.500000 -0.432356 0.500000
v -0.347650 -0.432356 0.500000
v -0.500000 0.432356 0.500000
v -0.347650 0.432356 0.500000
v -0.500000 0.432356 0.350000
v -0.347650 0.432356 0.350000
v -0.500000 -0.432356 0.350000
v -0.347650 -0.432356 0.350000
vt 0.744125 0.505689
vt 0.584494 0.615688
vt 0.489376 0.477653
vt 0.649007 0.367654
vt 0.539008 0.208022
vt 0.562953 0.191522
vt 0.672952 0.351154
vt 0.832584 0.241154
vt 0.927702 0.379190
vt 0.768070 0.489189
vt 0.560549 0.632188
vt 0.465431 0.494153
vt 0.854125 0.665320
vt 0.878069 0.648821
vt 0.001852 0.001992
vt 0.476577 0.001992
vt 0.476577 0.476718
vt 0.001852 0.476718
vt 0.087736 0.845345
vt 0.039213 0.807399
vt 0.254592 0.531991
vt 0.303115 0.569937
vt 0.291953 0.484216
vt 0.340476 0.522163
vt 0.350889 0.607299
vt 0.399412 0.645246
vt 0.184033 0.920653
vt 0.135510 0.882707
vt 0.231808 0.958015
vt 0.447187 0.682607
vt 0.050375 0.893120
vt 0.001852 0.855173
vt 0.522228 0.885339
vt 0.473705 0.847392
vt 0.689084 0.571984
vt 0.737607 0.609931
vt 0.726446 0.524210
vt 0.774969 0.562156
vt 0.785382 0.647292
vt 0.833904 0.685239
vt 0.618526 0.960647
vt 0.570003 0.922700
vt 0.666300 0.998008
vt 0.881679 0.722600
vt 0.484867 0.933113
vt 0.436344 0.895166
vn 0.000000 0.000000 1.000000
vn 0.000000 0.000000 1.000000
vn 0.000000 0.000000 1.000000
vn 0.000000 0.000000 1.000000
vn 0.000000 1.000000 0.000000
vn 0.000000 1.000000 0.000000
vn 0.000000 1.000000 0.000000
vn 0.000000 1.000000 0.000000
vn 0.000000 0.000000 -1.000000
vn 0.000000 0.000000 -1.000000
vn 0.000000 0.000000 -1.000000
vn 0.000000 0.000000 -1.000000
vn 1.000000 0.000000 0.000000
vn 1.000000 0.000000 0.000000
vn 1.000000 0.000000 0.000000
vn 1.000000 0.000000 0.000000
vn -1.000000 0.000000 0.000000
vn -1.000000 0.000000 0.000000
vn -1.000000 0.000000 0.000000
vn -1.000000 0.000000 0.000000
vn 0.000000 -1.000000 0.000000
vn 0.000000 -1.000000 0.000000
vn 0.000000 -1.000000 0.000000
vn 0.000000 -1.000000 0.000000
vn 0.000000 1.000000 0.000000
vn 0.000000 1.000000 0.000000
vn 0.000000 1.000000 0.000000
vn 0.000000 1.000000 0.000000
vn 0.000000 0.000000 1.000000
vn 0.000000 0.000000 1.000000
vn 0.000000 0.000000 1.000000
vn 0.000000 0.000000 1.000000
vn 0.000000 1.000000 0.000000
vn 0.000000 1.000000 0.000000
vn 0.000000 1.000000 0.000000
vn 0.000000 1.000000 0.000000
vn 0.000000 0.000000 -1.000000
vn 0.000000 0.000000 -1.000000
vn 0.000000 0.000000 -1.000000
vn 0.000000 0.000000 -1.000000
vn 1.000000 0.000000 0.000000
vn 1.000000 0.000000 0.000000
vn 1.000000 0.000000 0.000000
vn 1.000000 0.000000 0.000000
vn -1.000000 0.000000 0.000000
vn -1.000000 0.000000 0.000000
vn -1.000000 0.000000 0.000000
vn -1.000000 0.000000 0.000000
vn 0.000000 -1.000000 0.000000
vn 0.000000 -1.000000 0.000000
vn 0.000000 -1.000000 0.000000
vn 0.000000 -1.000000 0.000000
vn 0.000000 0.000000 1.000000
vn 0.000000 0.000000 1.000000
vn 0.000000 0.000000 1.000000
vn 0.000000 0.000000 1.000000
vn 0.000000 1.000000 0.000000
vn 0.000000 1.000000 0.000000
vn 0.000000 1.000000 0.000000
vn 0.000000 1.000000 0.000000
vn 0.000000 0.000000 -1.000000
vn 0.000000 0.000000 -1.000000
vn 0.000000 0.000000 -1.000000
vn 0.000000 0.000000 -1.000000
vn 1.000000 0.000000 0.000000
vn 1.000000 0.000000 0.000000
vn 1.000000 0.000000 0.000000
vn 1.000000 0.000000 0.000000
vn -1.000000 0.000000 0.000000
vn -1.000000 0.000000 0.000000
vn -1.000000 0.000000 0.000000
vn -1.000000 0.000000 0.000000
vn 0.000000 -1.000000 0.000000
vn 0.000000 -1.000000 0.000000
vn 0.000000 -1.000000 0.000000
vn 0.000000 -1.000000 0.000000
s off
g Trivia
usemtl initialShadingGroup
f 1/1/1 2/2/2 4/3/3 3/4/4
f 3/4/5 4/5/6 6/6/7 5/7/8
f 5/7/9 6/8/10 8/9/11 7/10/12
f 2/2/13 8/11/14 6/12/15 4/3/16
f 7/10/17 1/1/18 3/4/19 5/7/20
f 2/13/21 1/1/22 7/10/23 8/14/24
f 9/15/25 10/16/26 12/17/27 11/18/28
f 13/19/29 14/20/30 16/21/31 15/22/32
f 15/22/33 16/21/34 18/23/35 17/24/36
f 17/25/37 18/26/38 20/27/39 19/28/40
f 14/29/41 20/27/42 18/26/43 16/30/44
f 19/28/45 13/19/46 15/22/47 17/25/48
f 14/20/49 13/19/50 19/31/51 20/32/52
f 21/33/53 22/34/54 24/35/55 23/36/56
f 23/36/57 24/35/58 26/37/59 25/38/60
f 25/39/61 26/40/62 28/41/63 27/42/64
f 22/43/65 28/41/66 26/40/67 24/44/68
f 27/42/69 21/33/70 23/36/71 25/39/72
f 22/34/73 21/33/74 27/45/75 28/46/76
g default
v -0.500000 -0.432356 0.500000
v 0.500000 -0.432356 0.500000
v -0.500000 -0.432356 -0.500000
v 0.500000 -0.432356 -0.500000
v -0.500000 -0.432356 -0.350000
v 0.500000 -0.432356 -0.350000
v -0.500000 0.432356 -0.350000
v 0.500000 0.432356 -0.350000
v -0.500000 0.432356 -0.500000
v 0.500000 0.432356 -0.500000
v -0.500000 -0.432356 -0.500000
v 0.500000 -0.432356 -0.500000
v -0.500000 -0.432356 0.500000
v 0.500000 -0.432356 0.500000
v -0.500000 0.432356 0.500000
v 0.500000 0.432356 0.500000
v -0.500000 0.432356 0.350000
v 0.500000 0.432356 0.350000
v -0.500000 -0.432356 0.350000
v 0.500000 -0.432356 0.350000
vt 0.011046 0.235857
vt 0.246895 0.235857
vt 0.246895 0.471706
vt 0.011046 0.471706
vt 0.588040 0.662763
vt 0.251780 0.894474
vt 0.051416 0.603706
vt 0.387676 0.371994
vt 0.155965 0.035733
vt 0.206404 0.000977
vt 0.438115 0.337237
vt 0.774376 0.105526
vt 0.974740 0.396294
vt 0.638479 0.628006
vt 0.201341 0.929231
vt 0.000977 0.638462
vt 0.819752 0.999023
vt 0.870191 0.964267
vt 0.588040 0.662763
vt 0.251780 0.894474
vt 0.051416 0.603706
vt 0.387676 0.371994
vt 0.155965 0.035733
vt 0.206404 0.000977
vt 0.438115 0.337237
vt 0.774376 0.105526
vt 0.974740 0.396294
vt 0.638479 0.628006
vt 0.201341 0.929231
vt 0.000977 0.638462
vt 0.819752 0.999023
vt 0.870191 0.964267
vn 0.000000 1.000000 0.000000
vn 0.000000 1.000000 0.000000
vn 0.000000 1.000000 0.000000
vn 0.000000 1.000000 0.000000
vn 0.000000 0.000000 1.000000
vn 0.000000 0.000000 1.000000
vn 0.000000 0.000000 1.000000
vn 0.000000 0.000000 1.000000
vn 0.000000 1.000000 0.000000
vn 0.000000 1.000000 0.000000
vn 0.000000 1.000000 0.000000
vn 0.000000 1.000000 0.000000
vn 0.000000 0.000000 -1.000000
vn 0.000000 0.000000 -1.000000
vn 0.000000 0.000000 -1.000000
vn 0.000000 0.000000 -1.000000
vn 1.000000 0.000000 0.000000
vn 1.000000 0.000000 0.000000
vn 1.000000 0.000000 0.000000
vn 1.000000 0.000000 0.000000
vn -1.000000 0.000000 0.000000
vn -1.000000 0.000000 0.000000
vn -1.000000 0.000000 0.000000
vn -1.000000 0.000000 0.000000
vn 0.000000 -1.000000 0.000000
vn 0.000000 -1.000000 0.000000
vn 0.000000 -1.000000 0.000000
vn 0.000000 -1.000000 0.000000
vn 0.000000 0.000000 1.000000
vn 0.000000 0.000000 1.000000
vn 0.000000 0.000000 1.000000
vn 0.000000 0.000000 1.000000
vn 0.000000 1.000000 0.000000
vn 0.000000 1.000000 0.000000
vn 0.000000 1.000000 0.000000
vn 0.000000 1.000000 0.000000
vn 0.000000 0.000000 -1.000000
vn 0.000000 0.000000 -1.000000
vn 0.000000 0.000000 -1.000000
vn 0.000000 0.000000 -1.000000
vn 1.000000 0.000000 0.000000
vn 1.000000 0.000000 0.000000
vn 1.000000 0.000000 0.000000
vn 1.000000 0.000000 0.000000
vn -1.000000 0.000000 0.000000
vn -1.000000 0.000000 0.000000
vn -1.000000 0.000000 0.000000
vn -1.000000 0.000000 0.000000
vn 0.000000 -1.000000 0.000000
vn 0.000000 -1.000000 0.000000
vn 0.000000 -1.000000 0.000000
vn 0.000000 -1.000000 0.000000
s off
g Corridoio
usemtl initialShadingGroup
f 29/47/77 30/48/78 32/49/79 31/50/80
f 33/51/81 34/52/82 36/53/83 35/54/84
f 35/54/85 36/55/86 38/56/87 37/57/88
f 37/57/89 38/58/90 40/59/91 39/60/92
f 34/52/93 40/61/94 38/62/95 36/53/96
f 39/60/97 33/51/98 35/54/99 37/57/100
f 34/63/101 33/51/102 39/60/103 40/64/104
f 41/65/105 42/66/106 44/67/107 43/68/108
f 43/68/109 44/69/110 46/70/111 45/71/112
f 45/71/113 46/72/114 48/73/115 47/74/116
f 42/66/117 48/75/118 46/76/119 44/67/120
f 47/74/121 41/65/122 43/68/123 45/71/124
f 42/77/125 41/65/126 47/74/127 48/78/128
g default
v 0.347650 0.432356 -0.350000
v 0.500000 0.432356 -0.350000
v 0.500000 0.432356 -0.500000
v 0.347650 0.432356 -0.500000
v -0.500000 0.432356 -0.350000
v -0.500000 -0.432356 -0.350000
v 0.347650 -0.432356 -0.350000
v -0.500000 0.432356 -0.500000
v -0.500000 -0.432356 -0.500000
v 0.347650 -0.432356 -0.500000
v 0.347650 -0.432356 0.500000
v 0.500000 -0.432356 0.500000
v 0.500000 0.432356 0.500000
v 0.347650 0.432356 0.500000
v 0.500000 -0.432356 -0.350000
v 0.500000 -0.432356 -0.500000
v -0.500000 -0.432356 0.500000
v -0.347650 -0.432356 0.500000
v -0.500000 0.432356 0.500000
v -0.347650 0.432356 0.500000
v -0.500000 0.432356 0.350000
v -0.347650 0.432356 0.350000
v -0.500000 -0.432356 0.350000
v -0.347650 -0.432356 0.350000
v -0.500000 -0.432356 0.500000
v 0.500000 -0.432356 0.500000
v -0.500000 -0.432356 -0.500000
v 0.500000 -0.432356 -0.500000
vt 0.250687 0.769530
vt 0.231895 0.769530
vt 0.231895 0.751029
vt 0.250687 0.751029
vt 0.231895 0.732237
vt 0.125238 0.751029
vt 0.125238 0.732237
vt 0.125238 0.769530
vt 0.231895 0.504629
vt 0.231895 0.609182
vt 0.125238 0.609182
vt 0.125238 0.504629
vt 0.355240 0.751029
vt 0.355240 0.769530
vt 0.125237 0.627684
vt 0.231895 0.627684
vt 0.125237 0.893165
vt 0.125237 0.874373
vt 0.231895 0.874373
vt 0.231895 0.893165
vt 0.125237 0.998008
vt 0.231895 0.998008
vt 0.250687 0.874373
vt 0.001893 0.732237
vt 0.106736 0.732237
vt 0.106736 0.751029
vt 0.001893 0.751028
vt 0.106736 0.627684
vt 0.857237 0.393162
vt 0.905676 0.436436
vt 0.660060 0.711368
vt 0.611621 0.668094
vt 0.617453 0.759060
vt 0.569014 0.715786
vt 0.563929 0.625487
vt 0.515490 0.582213
vt 0.761106 0.307281
vt 0.809545 0.350555
vt 0.713414 0.264675
vt 0.467798 0.539607
vt 0.899844 0.345470
vt 0.948283 0.388744
vt 0.066276 0.100107
vt 0.418902 0.100107
vt 0.418902 0.452733
vt 0.066276 0.452733
vn 0.000000 1.000000 0.000000
vn 0.000000 1.000000 0.000000
vn 0.000000 1.000000 0.000000
vn 0.000000 1.000000 0.000000
vn 0.000000 0.000000 -1.000000
vn 0.000000 0.000000 -1.000000
vn 0.000000 0.000000 -1.000000
vn 0.000000 0.000000 -1.000000
vn 1.000000 0.000000 0.000000
vn 1.000000 0.000000 0.000000
vn 1.000000 0.000000 0.000000
vn 1.000000 0.000000 0.000000
vn 0.000000 0.000000 1.000000
vn 0.000000 0.000000 1.000000
vn 0.000000 0.000000 1.000000
vn 0.000000 0.000000 1.000000
vn 0.000000 1.000000 0.000000
vn 0.000000 1.000000 0.000000
vn 0.000000 1.000000 0.000000
vn 0.000000 1.000000 0.000000
vn -1.000000 0.000000 0.000000
vn -1.000000 0.000000 0.000000
vn -1.000000 0.000000 0.000000
vn -1.000000 0.000000 0.000000
vn 0.000000 0.000000 -1.000000
vn 0.000000 0.000000 -1.000000
vn 0.000000 0.000000 -1.000000
vn 0.000000 0.000000 -1.000000
vn 0.000000 0.000000 1.000000
vn 0.000000 0.000000 1.000000
vn 0.000000 0.000000 1.000000
vn 0.000000 0.000000 1.000000
vn -1.000000 0.000000 0.000000
vn -1.000000 0.000000 0.000000
vn -1.000000 0.000000 0.000000
vn -1.000000 0.000000 0.000000
vn 1.000000 0.000000 0.000000
vn 1.000000 0.000000 0.000000
vn 1.000000 0.000000 0.000000
vn 1.000000 0.000000 0.000000
vn 0.000000 1.000000 0.000000
vn 0.000000 1.000000 0.000000
vn 0.000000 1.000000 0.000000
vn 0.000000 1.000000 0.000000
vn 0.000000 -1.000000 0.000000
vn 0.000000 -1.000000 0.000000
vn 0.000000 -1.000000 0.000000
vn 0.000000 -1.000000 0.000000
vn 0.000000 -1.000000 0.000000
vn 0.000000 -1.000000 0.000000
vn 0.000000 -1.000000 0.000000
vn 0.000000 -1.000000 0.000000
vn 0.000000 -1.000000 0.000000
vn 0.000000 -1.000000 0.000000
vn 0.000000 -1.000000 0.000000
vn 0.000000 -1.000000 0.000000
vn 0.000000 0.000000 1.000000
vn 0.000000 0.000000 1.000000
vn 0.000000 0.000000 1.000000
vn 0.000000 0.000000 1.000000
vn 0.000000 1.000000 0.000000
vn 0.000000 1.000000 0.000000
vn 0.000000 1.000000 0.000000
vn 0.000000 1.000000 0.000000
vn 0.000000 0.000000 -1.000000
vn 0.000000 0.000000 -1.000000
vn 0.000000 0.000000 -1.000000
vn 0.000000 0.000000 -1.000000
vn 1.000000 0.000000 0.000000
vn 1.000000 0.000000 0.000000
vn 1.000000 0.000000 0.000000
vn 1.000000 0.000000 0.000000
vn -1.000000 0.000000 0.000000
vn -1.000000 0.000000 0.000000
vn -1.000000 0.000000 0.000000
vn -1.000000 0.000000 0.000000
vn 0.000000 -1.000000 0.000000
vn 0.000000 -1.000000 0.000000
vn 0.000000 -1.000000 0.000000
vn 0.000000 -1.000000 0.000000
vn 0.000000 1.000000 0.000000
vn 0.000000 1.000000 0.000000
vn 0.000000 1.000000 0.000000
vn 0.000000 1.000000 0.000000
s off
g L
usemtl initialShadingGroup
f 49/79/129 50/80/130 51/81/131 52/82/132
f 52/83/133 51/81/134 64/84/135 58/85/136
f 63/86/137 64/84/138 51/81/139 50/80/140
f 49/87/141 53/88/142 54/89/143 55/90/144
f 52/82/145 56/91/146 53/92/147 49/79/148
f 57/93/149 54/89/150 53/88/151 56/94/152
f 58/85/153 57/93/154 56/94/155 52/83/156
f 59/95/157 60/96/158 61/97/159 62/98/160
f 55/99/161 59/95/162 62/98/163 49/100/164
f 50/80/165 61/97/166 60/96/167 63/86/168
f 49/79/169 62/101/170 61/97/171 50/80/172
f 59/102/173 55/103/174 63/104/175 60/105/176
f 55/103/177 54/106/178 57/93/179 58/85/180
f 58/85/181 64/84/182 63/104/183 55/103/184
f 65/107/185 66/108/186 68/109/187 67/110/188
f 67/110/189 68/109/190 70/111/191 69/112/192
f 69/113/193 70/114/194 72/115/195 71/116/196
f 66/117/197 72/115/198 70/114/199 68/118/200
f 71/116/201 65/107/202 67/110/203 69/113/204
f 66/108/205 65/107/206 71/119/207 72/120/208
f 73/121/209 74/122/210 76/123/211 75/124/212
g default
v -0.500000 -0.432356 0.500000
v 0.500000 -0.432356 0.500000
v -0.500000 -0.432356 -0.500000
v 0.500000 -0.432356 -0.500000
v 0.347650 -0.432356 0.500000
v 0.500000 -0.432356 0.500000
v 0.347650 0.432356 0.500000
v 0.500000 0.432356 0.500000
v 0.347650 0.432356 0.350000
v 0.500000 0.432356 0.350000
v 0.347650 -0.432356 0.350000
v 0.500000 -0.432356 0.350000
v 0.347650 -0.432356 -0.350000
v 0.500000 -0.432356 -0.350000
v 0.347650 0.432356 -0.350000
v 0.500000 0.432356 -0.350000
v 0.347650 0.432356 -0.500000
v 0.500000 0.432356 -0.500000
v 0.347650 -0.432356 -0.500000
v 0.500000 -0.432356 -0.500000
v -0.500000 -0.432356 -0.350000
v -0.347650 -0.432356 -0.350000
v -0.500000 0.432356 -0.350000
v -0.347650 0.432356 -0.350000
v -0.500000 0.432356 -0.500000
v -0.347650 0.432356 -0.500000
v -0.500000 -0.432356 -0.500000
v -0.347650 -0.432356 -0.500000
v -0.500000 -0.432356 0.500000
v -0.347650 -0.432356 0.500000
v -0.500000 0.432356 0.500000
v -0.347650 0.432356 0.500000
v -0.500000 0.432356 0.350000
v -0.347650 0.432356 0.350000
v -0.500000 -0.432356 0.350000
v -0.347650 -0.432356 0.350000
vt 0.008749 0.011614
vt 0.336928 0.011614
vt 0.336928 0.339792
vt 0.008749 0.339792
vt 0.181890 0.761687
vt 0.079678 0.681754
vt 0.533369 0.101613
vt 0.635582 0.181546
vt 0.612070 0.000977
vt 0.714283 0.080910
vt 0.736218 0.260247
vt 0.838430 0.340181
vt 0.384739 0.920322
vt 0.282526 0.840389
vt 0.485375 0.999023
vt 0.939066 0.418882
vt 0.103189 0.862323
vt 0.000977 0.782390
vt 0.181890 0.761687
vt 0.079678 0.681754
vt 0.533369 0.101613
vt 0.635582 0.181546
vt 0.612070 0.000977
vt 0.714283 0.080910
vt 0.736218 0.260247
vt 0.838430 0.340181
vt 0.384739 0.920322
vt 0.282526 0.840389
vt 0.485375 0.999023
vt 0.939066 0.418882
vt 0.103189 0.862323
vt 0.000977 0.782390
vt 0.181890 0.761687
vt 0.079678 0.681754
vt 0.533369 0.101613
vt 0.635582 0.181546
vt 0.612070 0.000977
vt 0.714283 0.080910
vt 0.736218 0.260247
vt 0.838430 0.340181
vt 0.384739 0.920322
vt 0.282526 0.840389
vt 0.485375 0.999023
vt 0.939066 0.418882
vt 0.103189 0.862323
vt 0.000977 0.782390
vt 0.181890 0.761687
vt 0.079678 0.681754
vt 0.533369 0.101613
vt 0.635582 0.181546
vt 0.612070 0.000977
vt 0.714283 0.080910
vt 0.736218 0.260247
vt 0.838430 0.340181
vt 0.384739 0.920322
vt 0.282526 0.840389
vt 0.485375 0.999023
vt 0.939066 0.418882
vt 0.103189 0.862323
vt 0.000977 0.782390
vn 0.000000 1.000000 0.000000
vn 0.000000 1.000000 0.000000
vn 0.000000 1.000000 0.000000
vn 0.000000 1.000000 0.000000
vn 0.000000 0.000000 1.000000
vn 0.000000 0.000000 1.000000
vn 0.000000 0.000000 1.000000
vn 0.000000 0.000000 1.000000
vn 0.000000 1.000000 0.000000
vn 0.000000 1.000000 0.000000
vn 0.000000 1.000000 0.000000
vn 0.000000 1.000000 0.000000
vn 0.000000 0.000000 -1.000000
vn 0.000000 0.000000 -1.000000
vn 0.000000 0.000000 -1.000000
vn 0.000000 0.000000 -1.000000
vn 1.000000 0.000000 0.000000
vn 1.000000 0.000000 0.000000
vn 1.000000 0.000000 0.000000
vn 1.000000 0.000000 0.000000
vn -1.000000 0.000000 0.000000
vn -1.000000 0.000000 0.000000
vn -1.000000 0.000000 0.000000
vn -1.000000 0.000000 0.000000
vn 0.000000 -1.000000 0.000000
vn 0.000000 -1.000000 0.000000
vn 0.000000 -1.000000 0.000000
vn 0.000000 -1.000000 0.000000
vn 0.000000 0.000000 1.000000
vn 0.000000 0.000000 1.000000
vn 0.000000 0.000000 1.000000
vn 0.000000 0.000000 1.000000
vn 0.000000 1.000000 0.000000
vn 0.000000 1.000000 0.000000
vn 0.000000 1.000000 0.000000
vn 0.000000 1.000000 0.000000
vn 0.000000 0.000000 -1.000000
vn 0.000000 0.000000 -1.000000
vn 0.000000 0.000000 -1.000000
vn 0.000000 0.000000 -1.000000
vn 1.000000 0.000000 0.000000
vn 1.000000 0.000000 0.000000
vn 1.000000 0.000000 0.000000
vn 1.000000 0.000000 0.000000
vn -1.000000 0.000000 0.000000
vn -1.000000 0.000000 0.000000
vn -1.000000 0.000000 0.000000
vn -1.000000 0.000000 0.000000
vn 0.000000 -1.000000 0.000000
vn 0.000000 -1.000000 0.000000
vn 0.000000 -1.000000 0.000000
vn 0.000000 -1.000000 0.000000
vn 0.000000 0.000000 1.000000
vn 0.000000 0.000000 1.000000
vn 0.000000 0.000000 1.000000
vn 0.000000 0.000000 1.000000
vn 0.000000 1.000000 0.000000
vn 0.000000 1.000000 0.000000
vn 0.000000 1.000000 0.000000
vn 0.000000 1.000000 0.000000
vn 0.000000 0.000000 -1.000000
vn 0.000000 0.000000 -1.000000
vn 0.000000 0.000000 -1.000000
vn 0.000000 0.000000 -1.000000
vn 1.000000 0.000000 0.000000
vn 1.000000 0.000000 0.000000
vn 1.000000 0.000000 0.000000
vn 1.000000 0.000000 0.000000
vn -1.000000 0.000000 0.000000
vn -1.000000 0.000000 0.000000
vn -1.000000 0.000000 0.000000
vn -1.000000 0.000000 0.000000
vn 0.000000 -1.000000 0.000000
vn 0.000000 -1.000000 0.000000
vn 0.000000 -1.000000 0.000000
vn 0.000000 -1.000000 0.000000
vn 0.000000 0.000000 1.000000
vn 0.000000 0.000000 1.000000
vn 0.000000 0.000000 1.000000
vn 0.000000 0.000000 1.000000
vn 0.000000 1.000000 0.000000
vn 0.000000 1.000000 0.000000
vn 0.000000 1.000000 0.000000
vn 0.000000 1.000000 0.000000
vn 0.000000 0.000000 -1.000000
vn 0.000000 0.000000 -1.000000
vn 0.000000 0.000000 -1.000000
vn 0.000000 0.000000 -1.000000
vn 1.000000 0.000000 0.000000
vn 1.000000 0.000000 0.000000
vn 1.000000 0.000000 0.000000
vn 1.000000 0.000000 0.000000
vn -1.000000 0.000000 0.000000
vn -1.000000 0.000000 0.000000
vn -1.000000 0.000000 0.000000
vn -1.000000 0.000000 0.000000
vn 0.000000 -1.000000 0.000000
vn 0.000000 -1.000000 0.000000
vn 0.000000 -1.000000 0.000000
vn 0.000000 -1.000000 0.000000
s off
g Start
usemtl initialShadingGroup
f 77/125/213 78/126/214 80/127/215 79/128/216
f 81/129/217 82/130/218 84/131/219 83/132/220
f 83/132/221 84/131/222 86/133/223 85/134/224
f 85/135/225 86/136/226 88/137/227 87/138/228
f 82/139/229 88/137/230 86/136/231 84/140/232
f 87/138/233 81/129/234 83/132/235 85/135/236
f 82/130/237 81/129/238 87/141/239 88/142/240
f 89/143/241 90/144/242 92/145/243 91/146/244
f 91/146/245 92/145/246 94/147/247 93/148/248
f 93/149/249 94/150/250 96/151/251 95/152/252
f 90/153/253 96/151/254 94/150/255 92/154/256
f 95/152/257 89/143/258 91/146/259 93/149/260
f 90/144/261 89/143/262 95/155/263 96/156/264
f 97/157/265 98/158/266 100/159/267 99/160/268
f 99/160/269 100/159/270 102/161/271 101/162/272
f 101/163/273 102/164/274 104/165/275 103/166/276
f 98/167/277 104/165/278 102/164/279 100/168/280
f 103/166/281 97/157/282 99/160/283 101/163/284
f 98/158/285 97/157/286 103/169/287 104/170/288
f 105/171/289 106/172/290 108/173/291 107/174/292
f 107/174/293 108/173/294 110/175/295 109/176/296
f 109/177/297 110/178/298 112/179/299 111/180/300
f 106/181/301 112/179/302 110/178/303 108/182/304
f 111/180/305 105/171/306 107/174/307 109/177/308
f 106/172/309 105/171/310 111/183/311 112/184/312
